<svg width="800" height="800" viewBox="0 0 800 800" fill="none" xmlns="http://www.w3.org/2000/svg">
<rect width="800" height="800" rx="400" fill="black"/>
<path d="M406.235 594.25C402.485 593.4 398.86 592.225 395.21 591.15C394.285 590.875 393.36 590.6 392.46 590.325C388.885 589.225 385.36 588.075 381.835 586.85C381.36 586.675 380.86 586.5 380.385 586.325C377.235 585.2 374.11 584.05 371.01 582.85C370.135 582.5 369.26 582.175 368.385 581.825C364.985 580.475 361.61 579.075 358.26 577.625C357.585 577.325 356.91 577.025 356.235 576.725C353.36 575.425 350.535 574.1 347.71 572.75C346.885 572.35 346.085 571.975 345.235 571.575C343.01 570.5 340.81 569.325 338.635 568.225C337.16 567.45 335.685 566.725 334.235 565.925C331.56 564.475 328.935 563 326.31 561.475C325.435 560.975 324.535 560.525 323.635 560C320.16 557.975 316.71 555.85 313.335 553.7C312.41 553.1 311.485 552.45 310.56 551.85C308.085 550.275 305.635 548.65 303.235 546.975C302.435 546.45 301.66 545.85 300.885 545.325C298.56 543.675 296.235 542.025 293.96 540.325C292.91 539.55 291.91 538.775 290.885 538C288.785 536.4 286.685 534.775 284.635 533.1C283.71 532.35 282.76 531.6 281.835 530.85C279.21 528.675 276.61 526.525 274.035 524.275C273.76 524.05 273.46 523.825 273.185 523.575C270.41 521.15 267.685 518.65 264.985 516.125C264.21 515.375 263.435 514.65 262.685 513.925C260.685 512.025 258.735 510.1 256.81 508.15C256.035 507.375 255.26 506.625 254.51 505.85C252.06 503.325 249.66 500.775 247.285 498.2C247.16 498.075 247.035 497.95 246.935 497.825C244.435 495.1 242.01 492.3 239.61 489.475C238.96 488.7 238.335 487.975 237.685 487.2C235.91 485.05 234.135 482.875 232.41 480.675C231.76 479.9 231.11 479.075 230.485 478.275C228.41 475.575 226.385 472.9 224.41 470.175C169.485 395.275 149.76 291.95 193.66 207.1L154.76 256.45C104.91 328.1 111.11 421.325 149.185 497.45C150.085 499.275 151.035 501.075 151.985 502.875C152.585 504 153.135 505.175 153.76 506.3C154.11 506.975 154.51 507.625 154.86 508.275C155.51 509.5 156.185 510.65 156.835 511.825C158.01 513.9 159.235 515.975 160.46 518.05C161.135 519.175 161.835 520.325 162.535 521.45C163.91 523.675 165.31 525.85 166.76 528.05C167.36 528.975 167.935 529.925 168.56 530.825C170.56 533.775 172.585 536.725 174.66 539.65C174.71 539.725 174.785 539.8 174.835 539.875C175.16 540.325 175.535 540.8 175.86 541.275C177.66 543.775 179.535 546.25 181.435 548.675C182.135 549.575 182.835 550.475 183.535 551.35C185.21 553.475 186.935 555.575 188.685 557.675C189.335 558.45 189.985 559.25 190.66 560.025C193.01 562.775 195.385 565.525 197.835 568.225C197.885 568.275 197.935 568.325 197.985 568.35C198.085 568.475 198.185 568.55 198.26 568.675C200.635 571.275 203.085 573.825 205.535 576.35C206.31 577.15 207.085 577.925 207.86 578.7C209.76 580.625 211.71 582.525 213.685 584.4C214.485 585.15 215.26 585.925 216.06 586.675C218.685 589.15 221.335 591.575 224.035 593.95C224.085 593.975 224.11 594.025 224.16 594.05C224.61 594.45 225.11 594.85 225.56 595.225C227.935 597.275 230.36 599.325 232.81 601.35C233.81 602.15 234.81 602.95 235.81 603.75C237.81 605.35 239.81 606.925 241.835 608.475C242.91 609.3 243.985 610.125 245.06 610.925C247.285 612.575 249.56 614.2 251.835 615.775C252.66 616.375 253.46 616.95 254.31 617.525C254.535 617.675 254.76 617.85 254.985 618C257.135 619.5 259.36 620.9 261.56 622.35C262.51 622.975 263.435 623.625 264.41 624.25C267.81 626.4 271.235 628.525 274.71 630.575C275.66 631.125 276.61 631.65 277.56 632.175C280.11 633.65 282.685 635.1 285.285 636.525C286.685 637.275 288.135 638 289.56 638.725C291.385 639.675 293.235 640.675 295.085 641.6C295.51 641.825 295.96 642.025 296.36 642.225C297.11 642.575 297.86 642.925 298.635 643.325C301.535 644.7 304.46 646.075 307.41 647.4C308.035 647.675 308.635 647.95 309.26 648.225C312.635 649.7 316.035 651.125 319.485 652.475C320.31 652.825 321.135 653.125 321.985 653.45C325.16 654.675 328.385 655.9 331.635 657.025C332.035 657.175 332.435 657.325 332.86 657.45C336.41 658.7 340.01 659.85 343.61 660.975C344.46 661.225 345.335 661.5 346.21 661.75C349.885 662.85 353.535 664.175 357.335 664.875C598.41 708.85 668.435 520 668.435 520C609.635 596.625 505.235 616.825 406.31 594.35L406.235 594.25ZM319.385 398.85C324.785 406.6 330.785 415.8 337.935 422.025C340.535 424.875 343.26 427.675 346.035 430.425C346.735 431.15 347.46 431.825 348.16 432.525C350.86 435.15 353.585 437.7 356.41 440.2C356.535 440.275 356.635 440.4 356.76 440.5L356.835 440.575C359.96 443.325 363.21 445.975 366.485 448.55C367.21 449.1 367.935 449.7 368.685 450.275C371.985 452.8 375.335 455.275 378.785 457.65C378.885 457.725 378.985 457.8 379.085 457.875C380.61 458.925 382.16 459.9 383.685 460.925C384.435 461.4 385.135 461.925 385.885 462.375C388.335 463.95 390.835 465.5 393.36 466.95C393.71 467.175 394.06 467.35 394.41 467.55C396.585 468.825 398.81 470.05 401.035 471.25C401.81 471.7 402.61 472.075 403.385 472.475C404.91 473.275 406.46 474.075 408.01 474.875C408.235 474.975 408.485 475.1 408.71 475.175C411.885 476.75 415.085 478.25 418.36 479.675C419.06 479.975 419.785 480.25 420.485 480.55C423.11 481.675 425.735 482.75 428.385 483.775C429.51 484.2 430.66 484.6 431.76 485.025C434.185 485.925 436.585 486.75 439.035 487.55C440.135 487.9 441.21 488.25 442.31 488.6C445.785 489.675 449.21 491.05 452.81 491.65C638.935 522.475 681.91 379.175 681.91 379.175C643.185 434.975 568.16 461.575 488.11 440.8C484.56 439.85 481.06 438.85 477.56 437.75C476.485 437.425 475.46 437.075 474.385 436.725C471.91 435.925 469.46 435.075 467.01 434.175C465.885 433.75 464.785 433.35 463.685 432.925C461.01 431.9 458.36 430.825 455.76 429.725C455.035 429.4 454.31 429.125 453.61 428.825C450.335 427.4 447.085 425.9 443.885 424.325C442.235 423.525 440.635 422.675 439.01 421.85C438.085 421.375 437.135 420.9 436.21 420.4C434.135 419.275 432.085 418.1 430.06 416.925C429.585 416.65 429.06 416.375 428.585 416.1C426.06 414.625 423.585 413.1 421.11 411.55C420.36 411.075 419.61 410.55 418.86 410.05C417.235 409 415.61 407.925 414.035 406.85C410.61 404.475 407.26 402 403.985 399.5C403.235 398.9 402.46 398.325 401.71 397.725C366.685 370.05 338.91 332.25 325.685 289.375C311.835 244.925 314.835 195 338.81 154.5L309.36 196.075C273.31 247.95 275.26 317.4 303.385 372.275C308.11 381.475 313.41 390.4 319.335 398.9L319.385 398.85ZM515.585 334.675C517.11 335.25 518.66 335.75 520.21 336.275C520.885 336.475 521.56 336.725 522.26 336.925C524.46 337.6 526.635 338.425 528.885 338.825C631.66 358.675 659.535 286.075 666.96 275.4C642.535 310.55 601.51 319 551.16 306.775C547.185 305.8 542.81 304.375 538.96 303C534.035 301.25 529.21 299.25 524.485 297C515.535 292.7 507.01 287.5 499.11 281.525C454.06 247.35 426.06 182.125 455.46 129L439.535 150.925C418.285 182.2 416.21 221.05 430.935 255.575C446.485 292.25 478.36 321 515.535 334.65L515.585 334.675Z" fill="white"/>
</svg>
